<?xml version="1.0" encoding="iso-8859-1"?>
<!-- Uploaded to: SVG Repo, www.svgrepo.com, Generator: SVG Repo Mixer Tools -->
<svg fill="#000000" height="800px" width="800px" version="1.1" id="Layer_1" xmlns="http://www.w3.org/2000/svg" xmlns:xlink="http://www.w3.org/1999/xlink" 
	 viewBox="0 0 512 512" xml:space="preserve">
<g>
	<g>
		<path d="M446.299,102.779H65.701C29.473,102.779,0,132.258,0,168.492v229.273c0,6.327,5.129,11.456,11.456,11.456h46.042h397.003
			h46.042c6.326,0,11.456-5.129,11.456-11.456V168.492C512,132.258,482.527,102.779,446.299,102.779z M443.045,386.308H68.955
			v-95.212h29.992v47.6c0,6.327,5.129,11.456,11.456,11.456c6.327,0,11.456-5.129,11.456-11.456v-47.6h18.903v47.6
			c0,6.327,5.129,11.456,11.456,11.456s11.456-5.129,11.456-11.456v-47.6h39.054v47.6c0,6.327,5.129,11.456,11.456,11.456
			c6.327,0,11.456-5.129,11.456-11.456v-47.6h18.903v47.6c0,6.327,5.129,11.456,11.456,11.456c6.326,0,11.456-5.129,11.456-11.456
			v-47.6h18.903v47.6c0,6.327,5.13,11.456,11.456,11.456s11.456-5.129,11.456-11.456v-47.6h39.054v47.6
			c0,6.327,5.13,11.456,11.456,11.456s11.456-5.129,11.456-11.456v-47.6h18.903v47.6c0,6.327,5.13,11.456,11.456,11.456
			s11.456-5.129,11.456-11.456v-47.6h29.992V386.308z M489.088,386.308h-23.13V279.64c0-6.327-5.13-11.456-11.456-11.456H57.499
			c-6.327,0-11.456,5.129-11.456,11.456v106.669h-23.13V168.492c0-23.601,19.195-42.8,42.789-42.8h380.598
			c23.594,0,42.789,19.201,42.789,42.8V386.308z"/>
	</g>
</g>
<g>
	<g>
		<path d="M410.865,142.715c-30.378,0-55.093,24.714-55.093,55.093s24.714,55.093,55.093,55.093
			c30.378,0,55.093-24.714,55.093-55.093S441.242,142.715,410.865,142.715z M410.865,229.989c-17.745,0-32.18-14.436-32.18-32.18
			s14.436-32.18,32.18-32.18c17.744,0,32.18,14.436,32.18,32.18S428.609,229.989,410.865,229.989z"/>
	</g>
</g>
<g>
	<g>
		<path d="M101.135,142.715c-30.378,0-55.093,24.714-55.093,55.093s24.714,55.093,55.093,55.093
			c30.378,0,55.093-24.714,55.093-55.093S131.514,142.715,101.135,142.715z M101.135,229.989c-17.745,0-32.18-14.436-32.18-32.18
			s14.436-32.18,32.18-32.18c17.744,0,32.18,14.436,32.18,32.18S118.88,229.989,101.135,229.989z"/>
	</g>
</g>
<g>
	<g>
		<path d="M315.927,142.715H196.073c-6.327,0-11.456,5.129-11.456,11.456v52.87c0,6.327,5.129,11.456,11.456,11.456h119.855
			c6.326,0,11.456-5.129,11.456-11.456v-52.87C327.383,147.844,322.253,142.715,315.927,142.715z M304.471,195.586h-96.942v-29.958
			h96.942V195.586z"/>
	</g>
</g>
<g>
	<g>
		<path d="M202.322,229.989h-6.249c-6.327,0-11.456,5.129-11.456,11.456c0,6.327,5.129,11.456,11.456,11.456h6.249
			c6.327,0,11.456-5.129,11.456-11.456C213.778,235.118,208.649,229.989,202.322,229.989z"/>
	</g>
</g>
<g>
	<g>
		<path d="M315.927,229.989h-80.262c-6.327,0-11.456,5.129-11.456,11.456c0,6.327,5.129,11.456,11.456,11.456h80.262
			c6.326,0,11.456-5.129,11.456-11.456C327.383,235.118,322.253,229.989,315.927,229.989z"/>
	</g>
</g>
</svg>